<?xml version="1.0" standalone="no"?><!DOCTYPE svg PUBLIC "-//W3C//DTD SVG 1.1//EN" "http://www.w3.org/Graphics/SVG/1.1/DTD/svg11.dtd"><svg t="1689040588227" class="icon" viewBox="0 0 1024 1024" version="1.1" xmlns="http://www.w3.org/2000/svg" p-id="35383" xmlns:xlink="http://www.w3.org/1999/xlink" width="48" height="48"><path d="M820.6 95.4H203.4C135.3 95.4 80 150.7 80 218.9v586.3c0 68.2 55.3 123.4 123.4 123.4h617.1c68.2 0 123.4-55.3 123.4-123.4V218.9c0.1-68.2-55.2-123.5-123.3-123.5zM296 866.9h-92.6c-34.1 0-61.7-27.6-61.7-61.7v-432H296v493.7z m586.3-61.7c0 34.1-27.6 61.7-61.7 61.7H357.7V373.2h524.6v432z m0-493.8H141.7v-92.6c0-34.1 27.6-61.7 61.7-61.7h617.1c34.1 0 61.7 27.6 61.7 61.7v92.6z m-648-92.5c-17 0-30.9 13.8-30.9 30.9 0 17 13.8 30.9 30.9 30.9 17 0 30.9-13.8 30.9-30.9-0.1-17.1-13.9-30.9-30.9-30.9z m92.6 0c-17 0-30.9 13.8-30.9 30.9 0 17 13.8 30.9 30.9 30.9 17 0 30.9-13.8 30.9-30.9-0.1-17.1-13.9-30.9-30.9-30.9z m92.5 0c-17 0-30.9 13.8-30.9 30.9 0 17 13.8 30.9 30.9 30.9s30.9-13.8 30.9-30.9c0-17.1-13.8-30.9-30.9-30.9z" fill="#231815" p-id="35384"></path></svg>